<?xml version="1.0" encoding="UTF-8"?>
<!DOCTYPE svg PUBLIC "-//W3C//DTD SVG 1.1//EN" "http://www.w3.org/Graphics/SVG/1.1/DTD/svg11.dtd">
<svg xmlns="http://www.w3.org/2000/svg" xmlns:xlink="http://www.w3.org/1999/xlink" version="1.1" width="373px" height="1011px" viewBox="-0.5 -0.5 373 1011" style="background-color: rgb(255, 255, 255);"><defs><clipPath id="mx-clip-48-50-30-30-0"><rect x="48" y="50" width="30" height="30"/></clipPath><clipPath id="mx-clip-84-50-229-30-0"><rect x="84" y="50" width="229" height="30"/></clipPath><clipPath id="mx-clip-84-80-229-30-0"><rect x="84" y="80" width="229" height="30"/></clipPath><clipPath id="mx-clip-84-110-229-30-0"><rect x="84" y="110" width="229" height="30"/></clipPath><clipPath id="mx-clip-84-140-229-30-0"><rect x="84" y="140" width="229" height="30"/></clipPath><clipPath id="mx-clip-84-170-229-30-0"><rect x="84" y="170" width="229" height="30"/></clipPath><clipPath id="mx-clip-84-200-229-30-0"><rect x="84" y="200" width="229" height="30"/></clipPath><clipPath id="mx-clip-84-230-229-30-0"><rect x="84" y="230" width="229" height="30"/></clipPath><clipPath id="mx-clip-84-260-229-30-0"><rect x="84" y="260" width="229" height="30"/></clipPath><clipPath id="mx-clip-48-370-30-30-0"><rect x="48" y="370" width="30" height="30"/></clipPath><clipPath id="mx-clip-84-370-169-30-0"><rect x="84" y="370" width="169" height="30"/></clipPath><clipPath id="mx-clip-48-400-30-30-0"><rect x="48" y="400" width="30" height="30"/></clipPath><clipPath id="mx-clip-84-400-169-30-0"><rect x="84" y="400" width="169" height="30"/></clipPath><clipPath id="mx-clip-84-430-169-30-0"><rect x="84" y="430" width="169" height="30"/></clipPath><clipPath id="mx-clip-84-460-169-30-0"><rect x="84" y="460" width="169" height="30"/></clipPath><clipPath id="mx-clip-48-750-30-30-0"><rect x="48" y="750" width="30" height="30"/></clipPath><clipPath id="mx-clip-84-750-194-30-0"><rect x="84" y="750" width="194" height="30"/></clipPath><clipPath id="mx-clip-84-780-194-30-0"><rect x="84" y="780" width="194" height="30"/></clipPath><clipPath id="mx-clip-84-810-194-30-0"><rect x="84" y="810" width="194" height="30"/></clipPath><clipPath id="mx-clip-84-840-194-30-0"><rect x="84" y="840" width="194" height="30"/></clipPath><clipPath id="mx-clip-84-870-194-30-0"><rect x="84" y="870" width="194" height="30"/></clipPath><clipPath id="mx-clip-84-900-194-30-0"><rect x="84" y="900" width="194" height="30"/></clipPath><clipPath id="mx-clip-84-930-194-30-0"><rect x="84" y="930" width="194" height="30"/></clipPath><clipPath id="mx-clip-84-960-194-30-0"><rect x="84" y="960" width="194" height="30"/></clipPath><clipPath id="mx-clip-48-570-60-30-0"><rect x="48" y="570" width="60" height="30"/></clipPath><clipPath id="mx-clip-114-570-194-30-0"><rect x="114" y="570" width="194" height="30"/></clipPath><clipPath id="mx-clip-48-600-60-30-0"><rect x="48" y="600" width="60" height="30"/></clipPath><clipPath id="mx-clip-114-600-194-30-0"><rect x="114" y="600" width="194" height="30"/></clipPath><clipPath id="mx-clip-114-630-194-30-0"><rect x="114" y="630" width="194" height="30"/></clipPath><clipPath id="mx-clip-114-660-194-30-0"><rect x="114" y="660" width="194" height="30"/></clipPath><style type="text/css">@import url(https://fonts.googleapis.com/css?family=Permanent+Marker);&#xa;</style></defs><g><path d="M 48 50 L 48 20 L 313 20 L 313 50" fill="rgb(255, 255, 255)" stroke="rgb(0, 0, 0)" stroke-miterlimit="10" pointer-events="all"/><path d="M 48 50 L 48 290 L 313 290 L 313 50" fill="none" stroke="rgb(0, 0, 0)" stroke-miterlimit="10" pointer-events="none"/><path d="M 48 50 L 313 50" fill="none" stroke="rgb(0, 0, 0)" stroke-miterlimit="10" pointer-events="none"/><path d="M 78 50 L 78 80 L 78 110 L 78 140 L 78 170 L 78 200 L 78 230 L 78 260 L 78 290" fill="none" stroke="rgb(0, 0, 0)" stroke-miterlimit="10" pointer-events="none"/><g fill="rgb(0, 0, 0)" font-family="Helvetica" font-weight="bold" pointer-events="none" text-anchor="middle" font-size="12px"><text x="180" y="39.5">Tenant</text></g><path d="M 48 50 M 313 50 M 313 80 L 48 80" fill="none" stroke="rgb(0, 0, 0)" stroke-linecap="square" stroke-miterlimit="10" pointer-events="none"/><path d="M 48 50 M 78 50 M 78 80 M 48 80" fill="none" stroke="rgb(0, 0, 0)" stroke-linecap="square" stroke-miterlimit="10" pointer-events="none"/><g fill="rgb(0, 0, 0)" font-family="Helvetica" font-weight="bold" pointer-events="none" clip-path="url(#mx-clip-48-50-30-30-0)" text-anchor="middle" font-size="12px"><text x="62.5" y="69.5">PK</text></g><path d="M 78 50 M 313 50 M 313 80 M 78 80" fill="none" stroke="rgb(0, 0, 0)" stroke-linecap="square" stroke-miterlimit="10" pointer-events="none"/><g fill="rgb(0, 0, 0)" font-family="Helvetica" font-weight="bold" text-decoration="underline" pointer-events="none" clip-path="url(#mx-clip-84-50-229-30-0)" font-size="12px"><text x="85.5" y="69.5">id Integer NOT NULL </text></g><path d="M 48 80 M 313 80 M 313 110 M 48 110" fill="none" stroke="rgb(0, 0, 0)" stroke-linecap="square" stroke-miterlimit="10" pointer-events="none"/><path d="M 48 80 M 78 80 M 78 110 M 48 110" fill="none" stroke="rgb(0, 0, 0)" stroke-linecap="square" stroke-miterlimit="10" pointer-events="none"/><path d="M 78 80 M 313 80 M 313 110 M 78 110" fill="none" stroke="rgb(0, 0, 0)" stroke-linecap="square" stroke-miterlimit="10" pointer-events="none"/><g fill="rgb(0, 0, 0)" font-family="Helvetica" pointer-events="none" clip-path="url(#mx-clip-84-80-229-30-0)" font-size="12px"><text x="85.5" y="99.5">name UnicodeText NOT NULL UNIQUE</text></g><path d="M 48 110 M 313 110 M 313 140 M 48 140" fill="none" stroke="rgb(0, 0, 0)" stroke-linecap="square" stroke-miterlimit="10" pointer-events="none"/><path d="M 48 110 M 78 110 M 78 140 M 48 140" fill="none" stroke="rgb(0, 0, 0)" stroke-linecap="square" stroke-miterlimit="10" pointer-events="none"/><path d="M 78 110 M 313 110 M 313 140 M 78 140" fill="none" stroke="rgb(0, 0, 0)" stroke-linecap="square" stroke-miterlimit="10" pointer-events="none"/><g fill="rgb(0, 0, 0)" font-family="Helvetica" pointer-events="none" clip-path="url(#mx-clip-84-110-229-30-0)" font-size="12px"><text x="85.5" y="129.5">is_admin Boolean NOT NULL</text></g><path d="M 48 140 M 313 140 M 313 170 M 48 170" fill="none" stroke="rgb(0, 0, 0)" stroke-linecap="square" stroke-miterlimit="10" pointer-events="none"/><path d="M 48 140 M 78 140 M 78 170 M 48 170" fill="none" stroke="rgb(0, 0, 0)" stroke-linecap="square" stroke-miterlimit="10" pointer-events="none"/><path d="M 78 140 M 313 140 M 313 170 M 78 170" fill="none" stroke="rgb(0, 0, 0)" stroke-linecap="square" stroke-miterlimit="10" pointer-events="none"/><g fill="rgb(0, 0, 0)" font-family="Helvetica" pointer-events="none" clip-path="url(#mx-clip-84-140-229-30-0)" font-size="12px"><text x="85.5" y="159.5">ssh_key Text NOT NULL</text></g><path d="M 48 170 M 313 170 M 313 200 M 48 200" fill="none" stroke="rgb(0, 0, 0)" stroke-linecap="square" stroke-miterlimit="10" pointer-events="none"/><path d="M 48 170 M 78 170 M 78 200 M 48 200" fill="none" stroke="rgb(0, 0, 0)" stroke-linecap="square" stroke-miterlimit="10" pointer-events="none"/><path d="M 78 170 M 313 170 M 313 200 M 78 200" fill="none" stroke="rgb(0, 0, 0)" stroke-linecap="square" stroke-miterlimit="10" pointer-events="none"/><g fill="rgb(0, 0, 0)" font-family="Helvetica" pointer-events="none" clip-path="url(#mx-clip-84-170-229-30-0)" font-size="12px"><text x="85.5" y="189.5">api_key Text NOT NULL</text></g><path d="M 48 200 M 313 200 M 313 230 M 48 230" fill="none" stroke="rgb(0, 0, 0)" stroke-linecap="square" stroke-miterlimit="10" pointer-events="none"/><path d="M 48 200 M 78 200 M 78 230 M 48 230" fill="none" stroke="rgb(0, 0, 0)" stroke-linecap="square" stroke-miterlimit="10" pointer-events="none"/><path d="M 78 200 M 313 200 M 313 230 M 78 230" fill="none" stroke="rgb(0, 0, 0)" stroke-linecap="square" stroke-miterlimit="10" pointer-events="none"/><g fill="rgb(0, 0, 0)" font-family="Helvetica" pointer-events="none" clip-path="url(#mx-clip-84-200-229-30-0)" font-size="12px"><text x="85.5" y="219.5">node_quota Integer</text></g><path d="M 48 230 M 313 230 M 313 260 M 48 260" fill="none" stroke="rgb(0, 0, 0)" stroke-linecap="square" stroke-miterlimit="10" pointer-events="none"/><path d="M 48 230 M 78 230 M 78 260 M 48 260" fill="none" stroke="rgb(0, 0, 0)" stroke-linecap="square" stroke-miterlimit="10" pointer-events="none"/><path d="M 78 230 M 313 230 M 313 260 M 78 260" fill="none" stroke="rgb(0, 0, 0)" stroke-linecap="square" stroke-miterlimit="10" pointer-events="none"/><g fill="rgb(0, 0, 0)" font-family="Helvetica" pointer-events="none" clip-path="url(#mx-clip-84-230-229-30-0)" font-size="12px"><text x="85.5" y="249.5">session_liftetime Interval</text></g><path d="M 48 260 M 313 260 M 313 290 M 48 290" fill="none" stroke="rgb(0, 0, 0)" stroke-linecap="square" stroke-miterlimit="10" pointer-events="none"/><path d="M 48 260 M 78 260 M 78 290 M 48 290" fill="none" stroke="rgb(0, 0, 0)" stroke-linecap="square" stroke-miterlimit="10" pointer-events="none"/><path d="M 78 260 M 313 260 M 313 290 M 78 290" fill="none" stroke="rgb(0, 0, 0)" stroke-linecap="square" stroke-miterlimit="10" pointer-events="none"/><g fill="rgb(0, 0, 0)" font-family="Helvetica" pointer-events="none" clip-path="url(#mx-clip-84-260-229-30-0)" font-size="12px"><text x="85.5" y="279.5">session_lifetime_max Interval</text></g><path d="M 48 370 L 48 340 L 253 340 L 253 370" fill="rgb(255, 255, 255)" stroke="rgb(0, 0, 0)" stroke-miterlimit="10" pointer-events="none"/><path d="M 48 370 L 48 490 L 253 490 L 253 370" fill="none" stroke="rgb(0, 0, 0)" stroke-miterlimit="10" pointer-events="none"/><path d="M 48 370 L 253 370" fill="none" stroke="rgb(0, 0, 0)" stroke-miterlimit="10" pointer-events="none"/><path d="M 78 370 L 78 400 L 78 430 L 78 460 L 78 490" fill="none" stroke="rgb(0, 0, 0)" stroke-miterlimit="10" pointer-events="none"/><g fill="rgb(0, 0, 0)" font-family="Helvetica" font-weight="bold" pointer-events="none" text-anchor="middle" font-size="12px"><text x="150" y="359.5">Session</text></g><path d="M 48 370 M 253 370 M 253 400 L 48 400" fill="none" stroke="rgb(0, 0, 0)" stroke-linecap="square" stroke-miterlimit="10" pointer-events="none"/><path d="M 48 370 M 78 370 M 78 400 M 48 400" fill="none" stroke="rgb(0, 0, 0)" stroke-linecap="square" stroke-miterlimit="10" pointer-events="none"/><g fill="rgb(0, 0, 0)" font-family="Helvetica" font-weight="bold" pointer-events="none" clip-path="url(#mx-clip-48-370-30-30-0)" text-anchor="middle" font-size="12px"><text x="62.5" y="389.5">PK</text></g><path d="M 78 370 M 253 370 M 253 400 M 78 400" fill="none" stroke="rgb(0, 0, 0)" stroke-linecap="square" stroke-miterlimit="10" pointer-events="none"/><g fill="rgb(0, 0, 0)" font-family="Helvetica" font-weight="bold" text-decoration="underline" pointer-events="none" clip-path="url(#mx-clip-84-370-169-30-0)" font-size="12px"><text x="85.5" y="389.5">id Integer NOT NULL</text></g><path d="M 48 400 M 253 400 M 253 430 M 48 430" fill="none" stroke="rgb(0, 0, 0)" stroke-linecap="square" stroke-miterlimit="10" pointer-events="none"/><path d="M 48 400 M 78 400 M 78 430 M 48 430" fill="none" stroke="rgb(0, 0, 0)" stroke-linecap="square" stroke-miterlimit="10" pointer-events="none"/><g fill="rgb(0, 0, 0)" font-family="Helvetica" font-weight="bold" pointer-events="none" clip-path="url(#mx-clip-48-400-30-30-0)" text-anchor="middle" font-size="12px"><text x="62.5" y="419.5">FK</text></g><path d="M 78 400 M 253 400 M 253 430 M 78 430" fill="none" stroke="rgb(0, 0, 0)" stroke-linecap="square" stroke-miterlimit="10" pointer-events="none"/><g fill="rgb(0, 0, 0)" font-family="Helvetica" pointer-events="none" clip-path="url(#mx-clip-84-400-169-30-0)" font-size="12px"><text x="85.5" y="419.5">tenant_id Integer NOT NULL</text></g><path d="M 48 430 M 253 430 M 253 460 M 48 460" fill="none" stroke="rgb(0, 0, 0)" stroke-linecap="square" stroke-miterlimit="10" pointer-events="none"/><path d="M 48 430 M 78 430 M 78 460 M 48 460" fill="none" stroke="rgb(0, 0, 0)" stroke-linecap="square" stroke-miterlimit="10" pointer-events="none"/><path d="M 78 430 M 253 430 M 253 460 M 78 460" fill="none" stroke="rgb(0, 0, 0)" stroke-linecap="square" stroke-miterlimit="10" pointer-events="none"/><g fill="rgb(0, 0, 0)" font-family="Helvetica" pointer-events="none" clip-path="url(#mx-clip-84-430-169-30-0)" font-size="12px"><text x="85.5" y="449.5">expires_at DateTime</text></g><path d="M 48 460 M 253 460 M 253 490 M 48 490" fill="none" stroke="rgb(0, 0, 0)" stroke-linecap="square" stroke-miterlimit="10" pointer-events="none"/><path d="M 48 460 M 78 460 M 78 490 M 48 490" fill="none" stroke="rgb(0, 0, 0)" stroke-linecap="square" stroke-miterlimit="10" pointer-events="none"/><path d="M 78 460 M 253 460 M 253 490 M 78 490" fill="none" stroke="rgb(0, 0, 0)" stroke-linecap="square" stroke-miterlimit="10" pointer-events="none"/><g fill="rgb(0, 0, 0)" font-family="Helvetica" pointer-events="none" clip-path="url(#mx-clip-84-460-169-30-0)" font-size="12px"><text x="85.5" y="479.5">data JSON NOT NULL</text></g><path d="M 313 65 L 333 65 Q 343 65 343 75 L 343 405 Q 343 415 333 415 L 253 415" fill="none" stroke="rgb(0, 0, 0)" stroke-miterlimit="10" pointer-events="none"/><path d="M 317 61 L 317 69 M 321 61 L 321 69" fill="none" stroke="rgb(0, 0, 0)" stroke-miterlimit="10" pointer-events="none"/><path d="M 261 411 L 261 419 M 253 419 L 261 415 L 253 411" fill="none" stroke="rgb(0, 0, 0)" stroke-miterlimit="10" pointer-events="none"/><path d="M 48 750 L 48 720 L 278 720 L 278 750" fill="rgb(255, 255, 255)" stroke="rgb(0, 0, 0)" stroke-miterlimit="10" pointer-events="none"/><path d="M 48 750 L 48 990 L 278 990 L 278 750" fill="none" stroke="rgb(0, 0, 0)" stroke-miterlimit="10" pointer-events="none"/><path d="M 48 750 L 278 750" fill="none" stroke="rgb(0, 0, 0)" stroke-miterlimit="10" pointer-events="none"/><path d="M 78 750 L 78 780 L 78 810 L 78 840 L 78 870 L 78 900 L 78 930 L 78 960 L 78 990" fill="none" stroke="rgb(0, 0, 0)" stroke-miterlimit="10" pointer-events="none"/><g fill="rgb(0, 0, 0)" font-family="Helvetica" font-weight="bold" pointer-events="none" text-anchor="middle" font-size="12px"><text x="162.5" y="739.5">Node</text></g><path d="M 48 750 M 278 750 M 278 780 L 48 780" fill="none" stroke="rgb(0, 0, 0)" stroke-linecap="square" stroke-miterlimit="10" pointer-events="none"/><path d="M 48 750 M 78 750 M 78 780 M 48 780" fill="none" stroke="rgb(0, 0, 0)" stroke-linecap="square" stroke-miterlimit="10" pointer-events="none"/><g fill="rgb(0, 0, 0)" font-family="Helvetica" font-weight="bold" pointer-events="none" clip-path="url(#mx-clip-48-750-30-30-0)" text-anchor="middle" font-size="12px"><text x="62.5" y="769.5">PK</text></g><path d="M 78 750 M 278 750 M 278 780 M 78 780" fill="none" stroke="rgb(0, 0, 0)" stroke-linecap="square" stroke-miterlimit="10" pointer-events="none"/><g fill="rgb(0, 0, 0)" font-family="Helvetica" font-weight="bold" text-decoration="underline" pointer-events="none" clip-path="url(#mx-clip-84-750-194-30-0)" font-size="12px"><text x="85.5" y="769.5">id int NOT NULL</text></g><path d="M 48 780 M 278 780 M 278 810 M 48 810" fill="none" stroke="rgb(0, 0, 0)" stroke-linecap="square" stroke-miterlimit="10" pointer-events="none"/><path d="M 48 780 M 78 780 M 78 810 M 48 810" fill="none" stroke="rgb(0, 0, 0)" stroke-linecap="square" stroke-miterlimit="10" pointer-events="none"/><path d="M 78 780 M 278 780 M 278 810 M 78 810" fill="none" stroke="rgb(0, 0, 0)" stroke-linecap="square" stroke-miterlimit="10" pointer-events="none"/><g fill="rgb(0, 0, 0)" font-family="Helvetica" pointer-events="none" clip-path="url(#mx-clip-84-780-194-30-0)" font-size="12px"><text x="85.5" y="799.5">hostname Text NOT NULL UNIQUE</text></g><path d="M 48 810 M 278 810 M 278 840 M 48 840" fill="none" stroke="rgb(0, 0, 0)" stroke-linecap="square" stroke-miterlimit="10" pointer-events="none"/><path d="M 48 810 M 78 810 M 78 840 M 48 840" fill="none" stroke="rgb(0, 0, 0)" stroke-linecap="square" stroke-miterlimit="10" pointer-events="none"/><path d="M 78 810 M 278 810 M 278 840 M 78 840" fill="none" stroke="rgb(0, 0, 0)" stroke-linecap="square" stroke-miterlimit="10" pointer-events="none"/><g fill="rgb(0, 0, 0)" font-family="Helvetica" pointer-events="none" clip-path="url(#mx-clip-84-810-194-30-0)" font-size="12px"><text x="85.5" y="829.5">ipaddr Text NOT NULL UNIQUE</text></g><path d="M 48 840 M 278 840 M 278 870 M 48 870" fill="none" stroke="rgb(0, 0, 0)" stroke-linecap="square" stroke-miterlimit="10" pointer-events="none"/><path d="M 48 840 M 78 840 M 78 870 M 48 870" fill="none" stroke="rgb(0, 0, 0)" stroke-linecap="square" stroke-miterlimit="10" pointer-events="none"/><path d="M 78 840 M 278 840 M 278 870 M 78 870" fill="none" stroke="rgb(0, 0, 0)" stroke-linecap="square" stroke-miterlimit="10" pointer-events="none"/><g fill="rgb(0, 0, 0)" font-family="Helvetica" pointer-events="none" clip-path="url(#mx-clip-84-840-194-30-0)" font-size="12px"><text x="85.5" y="859.5">state Enum NOT NULL</text></g><path d="M 48 870 M 278 870 M 278 900 M 48 900" fill="none" stroke="rgb(0, 0, 0)" stroke-linecap="square" stroke-miterlimit="10" pointer-events="none"/><path d="M 48 870 M 78 870 M 78 900 M 48 900" fill="none" stroke="rgb(0, 0, 0)" stroke-linecap="square" stroke-miterlimit="10" pointer-events="none"/><path d="M 78 870 M 278 870 M 278 900 M 78 900" fill="none" stroke="rgb(0, 0, 0)" stroke-linecap="square" stroke-miterlimit="10" pointer-events="none"/><g fill="rgb(0, 0, 0)" font-family="Helvetica" pointer-events="none" clip-path="url(#mx-clip-84-870-194-30-0)" font-size="12px"><text x="85.5" y="889.5">comment UnicodeText</text></g><path d="M 48 900 M 278 900 M 278 930 M 48 930" fill="none" stroke="rgb(0, 0, 0)" stroke-linecap="square" stroke-miterlimit="10" pointer-events="none"/><path d="M 48 900 M 78 900 M 78 930 M 48 930" fill="none" stroke="rgb(0, 0, 0)" stroke-linecap="square" stroke-miterlimit="10" pointer-events="none"/><path d="M 78 900 M 278 900 M 278 930 M 78 930" fill="none" stroke="rgb(0, 0, 0)" stroke-linecap="square" stroke-miterlimit="10" pointer-events="none"/><g fill="rgb(0, 0, 0)" font-family="Helvetica" pointer-events="none" clip-path="url(#mx-clip-84-900-194-30-0)" font-size="12px"><text x="85.5" y="919.5">pool UnicodeText</text></g><path d="M 48 930 M 278 930 M 278 960 M 48 960" fill="none" stroke="rgb(0, 0, 0)" stroke-linecap="square" stroke-miterlimit="10" pointer-events="none"/><path d="M 48 930 M 78 930 M 78 960 M 48 960" fill="none" stroke="rgb(0, 0, 0)" stroke-linecap="square" stroke-miterlimit="10" pointer-events="none"/><path d="M 78 930 M 278 930 M 278 960 M 78 960" fill="none" stroke="rgb(0, 0, 0)" stroke-linecap="square" stroke-miterlimit="10" pointer-events="none"/><g fill="rgb(0, 0, 0)" font-family="Helvetica" pointer-events="none" clip-path="url(#mx-clip-84-930-194-30-0)" font-size="12px"><text x="85.5" y="949.5">reusable Boolean NOT NULL</text></g><path d="M 48 960 M 278 960 M 278 990 M 48 990" fill="none" stroke="rgb(0, 0, 0)" stroke-linecap="square" stroke-miterlimit="10" pointer-events="none"/><path d="M 48 960 M 78 960 M 78 990 M 48 990" fill="none" stroke="rgb(0, 0, 0)" stroke-linecap="square" stroke-miterlimit="10" pointer-events="none"/><path d="M 78 960 M 278 960 M 278 990 M 78 990" fill="none" stroke="rgb(0, 0, 0)" stroke-linecap="square" stroke-miterlimit="10" pointer-events="none"/><g fill="rgb(0, 0, 0)" font-family="Helvetica" pointer-events="none" clip-path="url(#mx-clip-84-960-194-30-0)" font-size="12px"><text x="85.5" y="979.5">data JSON NOT NULL</text></g><path d="M 48 570 L 48 540 L 308 540 L 308 570" fill="rgb(255, 255, 255)" stroke="rgb(0, 0, 0)" stroke-miterlimit="10" pointer-events="none"/><path d="M 48 570 L 48 690 L 308 690 L 308 570" fill="none" stroke="rgb(0, 0, 0)" stroke-miterlimit="10" pointer-events="none"/><path d="M 48 570 L 308 570" fill="none" stroke="rgb(0, 0, 0)" stroke-miterlimit="10" pointer-events="none"/><path d="M 108 570 L 108 600 L 108 630 L 108 660 L 108 690" fill="none" stroke="rgb(0, 0, 0)" stroke-miterlimit="10" pointer-events="none"/><g fill="rgb(0, 0, 0)" font-family="Helvetica" font-weight="bold" pointer-events="none" text-anchor="middle" font-size="12px"><text x="177.5" y="559.5">SessionsNodes</text></g><path d="M 48 570 M 308 570 M 308 600 M 48 600" fill="none" stroke="rgb(0, 0, 0)" stroke-linecap="square" stroke-miterlimit="10" pointer-events="none"/><path d="M 48 570 M 108 570 M 108 600 M 48 600" fill="none" stroke="rgb(0, 0, 0)" stroke-linecap="square" stroke-miterlimit="10" pointer-events="none"/><g fill="rgb(0, 0, 0)" font-family="Helvetica" font-weight="bold" pointer-events="none" clip-path="url(#mx-clip-48-570-60-30-0)" text-anchor="middle" font-size="12px"><text x="77.5" y="589.5">PK,FK1</text></g><path d="M 108 570 M 308 570 M 308 600 M 108 600" fill="none" stroke="rgb(0, 0, 0)" stroke-linecap="square" stroke-miterlimit="10" pointer-events="none"/><g fill="rgb(0, 0, 0)" font-family="Helvetica" font-weight="bold" text-decoration="underline" pointer-events="none" clip-path="url(#mx-clip-114-570-194-30-0)" font-size="12px"><text x="115.5" y="589.5">session_id Integer NOT NULL</text></g><path d="M 48 600 M 308 600 M 308 630 L 48 630" fill="none" stroke="rgb(0, 0, 0)" stroke-linecap="square" stroke-miterlimit="10" pointer-events="none"/><path d="M 48 600 M 108 600 M 108 630 M 48 630" fill="none" stroke="rgb(0, 0, 0)" stroke-linecap="square" stroke-miterlimit="10" pointer-events="none"/><g fill="rgb(0, 0, 0)" font-family="Helvetica" font-weight="bold" pointer-events="none" clip-path="url(#mx-clip-48-600-60-30-0)" text-anchor="middle" font-size="12px"><text x="77.5" y="619.5">PK,FK2</text></g><path d="M 108 600 M 308 600 M 308 630 M 108 630" fill="none" stroke="rgb(0, 0, 0)" stroke-linecap="square" stroke-miterlimit="10" pointer-events="none"/><g fill="rgb(0, 0, 0)" font-family="Helvetica" font-weight="bold" text-decoration="underline" pointer-events="none" clip-path="url(#mx-clip-114-600-194-30-0)" font-size="12px"><text x="115.5" y="619.5">node_id Integer NOT NULL</text></g><path d="M 48 630 M 308 630 M 308 660 M 48 660" fill="none" stroke="rgb(0, 0, 0)" stroke-linecap="square" stroke-miterlimit="10" pointer-events="none"/><path d="M 48 630 M 108 630 M 108 660 M 48 660" fill="none" stroke="rgb(0, 0, 0)" stroke-linecap="square" stroke-miterlimit="10" pointer-events="none"/><path d="M 108 630 M 308 630 M 308 660 M 108 660" fill="none" stroke="rgb(0, 0, 0)" stroke-linecap="square" stroke-miterlimit="10" pointer-events="none"/><g fill="rgb(0, 0, 0)" font-family="Helvetica" pointer-events="none" clip-path="url(#mx-clip-114-630-194-30-0)" font-size="12px"><text x="115.5" y="649.5">pool UnicodeText NOT NULL</text></g><path d="M 48 660 M 308 660 M 308 690 M 48 690" fill="none" stroke="rgb(0, 0, 0)" stroke-linecap="square" stroke-miterlimit="10" pointer-events="none"/><path d="M 48 660 M 108 660 M 108 690 M 48 690" fill="none" stroke="rgb(0, 0, 0)" stroke-linecap="square" stroke-miterlimit="10" pointer-events="none"/><path d="M 108 660 M 308 660 M 308 690 M 108 690" fill="none" stroke="rgb(0, 0, 0)" stroke-linecap="square" stroke-miterlimit="10" pointer-events="none"/><g fill="rgb(0, 0, 0)" font-family="Helvetica" pointer-events="none" clip-path="url(#mx-clip-114-660-194-30-0)" font-size="12px"><text x="115.5" y="679.5">data JSON NOT NULL</text></g><path d="M 48 385 L 38 385 Q 28 385 28 395 L 28 575 Q 28 585 38 585 L 48 585" fill="none" stroke="rgb(0, 0, 0)" stroke-miterlimit="10" pointer-events="none"/><path d="M 44 389 L 44 381 M 40 389 L 40 381" fill="none" stroke="rgb(0, 0, 0)" stroke-miterlimit="10" pointer-events="none"/><path d="M 40 589 L 40 581 M 48 581 L 40 585 L 48 589" fill="none" stroke="rgb(0, 0, 0)" stroke-miterlimit="10" pointer-events="none"/><path d="M 48 765 L 38 765 Q 28 765 28 755 L 28 625 Q 28 615 38 615 L 48 615" fill="none" stroke="rgb(0, 0, 0)" stroke-miterlimit="10" pointer-events="none"/><path d="M 44 769 L 44 761 M 40 769 L 40 761" fill="none" stroke="rgb(0, 0, 0)" stroke-miterlimit="10" pointer-events="none"/><path d="M 40 619 L 40 611 M 48 611 L 40 615 L 48 619" fill="none" stroke="rgb(0, 0, 0)" stroke-miterlimit="10" pointer-events="none"/></g></svg>